  <svg
    width="45"
    height="37"
    viewBox="0 0 45 37"
    fill="none"
    xmlns="http://www.w3.org/2000/svg"
  >
    <path
      d="M25.807 19.086c-.485-.764-.744-1.319-1.136-1.76a815.404 815.404 0 00-7.627-8.56 4.462 4.462 0 00-1.429-1.06c-.352-.16-1.016-.182-1.22.033-.3.32-.508.962-.396 1.37.165.624.57 1.226.99 1.737 2.52 3.07 5.081 6.113 7.626 9.161.143.17.302.337.475.48.6.508 1.352.985 1.995.37.447-.429.524-1.245.722-1.771zM36.215 9.964c.25 1.018.476 2.041.759 3.053.232.816.832 1.255 1.674 1.21.847-.046 1.371-.582 1.568-1.378.105-.425.176-.914.07-1.328-.645-2.533-1.341-5.05-2.03-7.57-.056-.212-.147-.491-.309-.587-.54-.323-1.14-.827-1.688-.8-.86.045-1.203.871-1.13 1.67.104 1.114.322 2.221.534 3.322.155.806.384 1.601.577 2.404l-.027.009.002-.005zM7.28 28.081c-.22.298-.737.71-.825 1.2-.072.394.287.96.603 1.313.28.309.746.487 1.164.633 1.967.697 3.947 1.363 5.921 2.04.21.071.43.13.65.167.981.166 1.984.278 2.601-.72.457-.732-.07-1.93-1.239-2.553-2.395-1.274-4.98-1.97-7.69-2.171-.295-.021-.595.046-1.183.095l-.001-.004z"
      fill="#818cf8"
    ></path>
  </svg>